<svg xmlns="http://www.w3.org/2000/svg" width="180" height="30"><g fill="none" fill-rule="evenodd"><path fill="#0A0B09" d="M35.456 16.018v-.032c0-2.13-1.478-3.498-3.18-3.498-1.684 0-3.306 1.415-3.306 3.482v.032c0 2.083 1.622 3.482 3.307 3.482 1.764 0 3.18-1.288 3.18-3.466zm-7.218-4.086h.78v1.812c.699-1.065 1.732-2.003 3.338-2.003 1.956 0 3.943 1.574 3.943 4.213v.032c0 2.64-1.987 4.245-3.943 4.245-1.621 0-2.67-.922-3.339-1.94v4.293h-.779V11.932zm10.016 0h.78v2.305c.635-1.447 1.987-2.496 3.593-2.432v.858h-.08c-1.876 0-3.514 1.415-3.514 4.054v3.323h-.779v-8.108m12.418 4.086v-.032c0-1.956-1.463-3.513-3.34-3.513-1.923 0-3.306 1.573-3.306 3.481v.032c0 1.956 1.463 3.514 3.339 3.514 1.924 0 3.307-1.574 3.307-3.482zm-7.489 0v-.032c0-2.273 1.765-4.245 4.182-4.245 2.4 0 4.15 1.94 4.15 4.213v.032c0 2.274-1.765 4.245-4.182 4.245-2.401 0-4.15-1.94-4.15-4.213zm10.684 1.939v-5.31H52.69v-.715h1.177V9.34h.779v2.592h2.846v.715h-2.846v5.23c0 1.161.684 1.575 1.622 1.575.397 0 .731-.08 1.192-.286v.731a2.97 2.97 0 01-1.32.286c-1.256 0-2.273-.683-2.273-2.226m11.384-2.353c-.111-1.637-1.05-3.148-2.91-3.148-1.605 0-2.845 1.352-2.989 3.148h5.899zm-6.725.398v-.032c0-2.353 1.653-4.229 3.847-4.229 2.274 0 3.72 1.844 3.72 4.245 0 .143 0 .191-.015.318h-6.726c.144 2.02 1.59 3.196 3.18 3.196 1.256 0 2.115-.557 2.783-1.272l.54.477c-.827.89-1.796 1.526-3.355 1.526-2.13 0-3.974-1.701-3.974-4.229zm9.478 4.038h.804v-8.108h-.804v8.108zm-.098-10.223h1V8.752h-1v1.065zm3.466 2.115h.779v1.51c.54-.954 1.446-1.701 2.925-1.701 2.051 0 3.244 1.4 3.244 3.339v4.96h-.78v-4.817c0-1.67-.937-2.767-2.575-2.767-1.59 0-2.814 1.209-2.814 2.894v4.69h-.78v-8.108m20.78 4.086v-.032c0-2.13-1.478-3.498-3.18-3.498-1.685 0-3.307 1.415-3.307 3.482v.032c0 2.083 1.622 3.482 3.307 3.482 1.766 0 3.18-1.288 3.18-3.466zm-6.439 2.273v1.75h-.779V8.433h.78v5.31c.699-1.065 1.732-2.003 3.338-2.003 1.956 0 3.943 1.574 3.943 4.213v.032c0 2.64-1.987 4.245-3.943 4.245-1.621 0-2.671-.922-3.339-1.94zm14.818-1.287v-.922a10.747 10.747 0 00-2.751-.366c-1.717 0-2.67.763-2.67 1.892v.032c0 1.176 1.112 1.86 2.352 1.86 1.654 0 3.069-1.017 3.069-2.496zm-6.249.683v-.032c0-1.685 1.447-2.639 3.546-2.639 1.129 0 1.908.143 2.687.35v-.35c0-1.637-1.001-2.48-2.67-2.48-.986 0-1.798.27-2.545.652l-.286-.684c.89-.413 1.765-.7 2.878-.7 1.096 0 1.97.302 2.56.89.54.541.826 1.289.826 2.29v5.056h-.763v-1.35c-.556.779-1.558 1.542-3.1 1.542-1.51 0-3.133-.858-3.133-2.544zm9.317-5.755h.779v2.305c.636-1.447 1.987-2.496 3.593-2.432v.858h-.08c-1.875 0-3.513 1.415-3.513 4.054v3.323h-.78v-8.108m15.63-.732v-.031c0-.986-.764-1.75-1.765-1.75-1.13 0-1.924.796-1.924 1.797v.032c0 .7.302 1.24 1.287 2.29 1.59-.51 2.402-1.288 2.402-2.338zm.508 6.535l-3.29-3.403c-1.766.605-2.545 1.638-2.545 2.719v.032c0 1.352 1.081 2.4 2.608 2.4 1.24 0 2.305-.667 3.227-1.748zm.525.54c-1.05 1.225-2.273 1.925-3.768 1.925-1.955 0-3.419-1.273-3.419-3.085v-.032c0-1.494 1.066-2.592 2.878-3.26-.842-.937-1.24-1.62-1.24-2.543v-.032c0-1.43 1.161-2.528 2.783-2.528 1.446 0 2.559 1.081 2.559 2.417v.032c0 1.383-1.033 2.29-2.734 2.877l2.925 3.005c.54-.763 1.017-1.685 1.446-2.703l.748.302c-.509 1.145-1.05 2.147-1.654 2.958l2.051 2.115-.651.54-1.924-1.988zm8.394-9.841h.779v8.697l5.024-5.2h1.034l-3.546 3.594 3.657 4.515h-.986l-3.211-3.958-1.972 1.986v1.972h-.78V8.434m8.542 11.606h.803v-8.108h-.803v8.108zm-.099-10.223h1V8.752h-1v1.065zm3.895 8.14v-5.31h-1.176v-.715h1.176V9.34h.78v2.592h2.845v.715h-2.845v5.23c0 1.161.683 1.575 1.621 1.575.398 0 .732-.08 1.193-.286v.731a2.977 2.977 0 01-1.32.286c-1.256 0-2.274-.683-2.274-2.226m4.659-1.939v-.032c0-2.273 1.812-4.245 4.133-4.245 1.526 0 2.48.7 3.243 1.494l-.556.573c-.7-.716-1.495-1.335-2.703-1.335-1.845 0-3.275 1.542-3.275 3.481v.032c0 1.956 1.478 3.514 3.338 3.514 1.145 0 2.036-.589 2.72-1.352l.54.477c-.827.938-1.813 1.606-3.307 1.606-2.338 0-4.134-1.94-4.134-4.213m9.157-7.584h.78v5.008c.54-.954 1.447-1.701 2.925-1.701 2.052 0 3.243 1.4 3.243 3.339v4.96h-.778v-4.817c0-1.67-.938-2.767-2.576-2.767-1.59 0-2.814 1.209-2.814 2.894v4.69h-.78V8.434m15.439 7.17c-.112-1.637-1.05-3.148-2.91-3.148-1.606 0-2.846 1.352-2.989 3.148h5.899zm-6.725.398v-.032c0-2.353 1.653-4.229 3.847-4.229 2.274 0 3.72 1.844 3.72 4.245 0 .143 0 .191-.015.318h-6.726c.143 2.02 1.59 3.196 3.18 3.196 1.256 0 2.115-.557 2.782-1.272l.541.477c-.827.89-1.797 1.526-3.355 1.526-2.13 0-3.974-1.701-3.974-4.229zm9.364-4.07h.78v1.51c.54-.954 1.447-1.701 2.925-1.701 2.051 0 3.243 1.4 3.243 3.339v4.96h-.779v-4.817c0-1.67-.937-2.767-2.575-2.767-1.59 0-2.815 1.209-2.815 2.894v4.69h-.779v-8.108"/><path fill="#E26329" d="M11.638 17.22a1.722 1.722 0 110-3.446 1.722 1.722 0 010 3.445zm6.478-3.422c-.794 0-1.46.538-1.66 1.269H15.24a3.618 3.618 0 00-.728-1.777l.868-.868a1.718 1.718 0 002.06-2.712 1.718 1.718 0 10-2.707 2.071l-.861.862a3.625 3.625 0 00-1.78-.745v-1.22a1.722 1.722 0 10-.91 0v1.216a3.62 3.62 0 00-1.79.74l-.863-.863a1.718 1.718 0 00-2.703-2.078 1.717 1.717 0 102.055 2.715l.868.868a3.619 3.619 0 00-.74 1.79H6.802a1.721 1.721 0 10-1.666 2.153 1.72 1.72 0 001.654-1.243h1.225a3.62 3.62 0 00.746 1.78l-.857.856a1.719 1.719 0 00-2.093 2.695 1.722 1.722 0 002.436 0 1.716 1.716 0 00.287-2.038l.873-.874a3.622 3.622 0 001.777.729v1.209a1.722 1.722 0 10.91.012V19.12a3.62 3.62 0 001.766-.735l.862.862a1.718 1.718 0 002.703 2.078 1.717 1.717 0 10-2.055-2.715l-.867-.868c.389-.501.65-1.105.735-1.766h1.219a1.722 1.722 0 101.66-2.178z"/><path fill="#E26329" d="M11.626 4.946C5.8 4.946 1.063 9.685 1.063 15.51c0 5.824 4.738 10.562 10.563 10.562 5.824 0 10.562-4.738 10.562-10.562 0-5.824-4.738-10.563-10.562-10.563zm0 22.018C5.309 26.964.17 21.825.17 15.509S5.309 4.054 11.626 4.054c6.316 0 11.455 5.139 11.455 11.455s-5.14 11.455-11.455 11.455z"/></g></svg>